#!OML:ASF I:\golf\golf\golf 2\Subject 1\2002-09-07\Subject1.ASF
:FULLY-SPECIFIED
:DEGREES
272
root -8.88644 17.9897 5.53423 -59.0471 86.5477 -74.1242
lowerback 4.989 1.16511 -0.257833
upperback 5.74468 1.68469 4.65849
thorax 2.99486 0.832222 4.94206
lowerneck -11.4623 -0.829581 2.15633
upperneck 44.0955 3.36891 -5.06808
head 18.8127 1.83657 -1.95337
rclavicle 9.54166e-015 2.38542e-015
rhumerus -19.5469 45.0435 -99.3026
rradius 55.9203
rwrist -63.3766
rhand -39.0301 -17.8574
rfingers 7.12502
rthumb -12.0327 -47.4915
lclavicle 9.54166e-015 2.38542e-015
lhumerus -16.5807 -47.3691 105.921
lradius 53.5579
lwrist 63.9623
lhand -12.0559 65.8726
lfingers 7.12502
lthumb -165.997 84.6191
rfemur -27.9691 -1.32897 14.3007
rtibia 25.7431
rfoot -7.02499 -6.53554
rtoes -2.84851
lfemur -28.1815 3.4184 -10.6609
ltibia 25.9899
lfoot -10.5263 -5.48876
ltoes -15.2568
273
root -8.88712 17.9938 5.53322 -60.2831 86.5486 -75.2837
lowerback 5.08755 1.20927 -0.176383
upperback 5.74894 1.74916 4.63503
thorax 2.94109 0.869081 4.86652
lowerneck -11.4102 -0.822515 2.16878
upperneck 44.0831 3.34656 -4.98635
head 18.7853 1.84284 -1.91895
rclavicle 1.51076e-014 2.8625e-014
rhumerus -19.6158 44.9484 -99.3843
rradius 55.9174
rwrist -63.2817
rhand -38.9376 -18.2191
rfingers 7.12502
rthumb -11.9435 -47.8584
lclavicle 1.51076e-014 2.8625e-014
lhumerus -16.6956 -47.4145 105.939
lradius 53.6132
lwrist 63.927
lhand -11.929 65.5256
lfingers 7.12502
lthumb -165.875 84.9745
rfemur -27.8391 -1.37274 14.3381
rtibia 25.6942
rfoot -7.00606 -6.58998
rtoes -3.39903
lfemur -28.0473 3.11111 -10.5612
ltibia 25.9006
lfoot -10.4656 -5.24827
ltoes -15.4268
274
root -8.88826 17.9942 5.52887 -63.0932 86.5873 -78.082
lowerback 5.12532 1.21974 -0.0430457
upperback 5.743 1.76877 4.61197
thorax 2.916 0.884794 4.76471
lowerneck -11.4041 -0.822069 2.1873
upperneck 44.0911 3.31178 -4.90142
head 18.7833 1.84504 -1.88706
rclavicle -8.74653e-015 -7.95139e-015
rhumerus -19.6335 44.9065 -99.4416
rradius 55.9076
rwrist -63.2277
rhand -39.026 -18.3938
rfingers 7.12502
rthumb -12.0287 -48.0281
lclavicle -8.74653e-015 -7.95139e-015
lhumerus -16.7492 -47.4435 105.942
lradius 53.6454
lwrist 63.9645
lhand -12.0467 65.781
lfingers 7.12502
lthumb -165.988 84.7113
rfemur -27.7508 -1.44354 14.3459
rtibia 25.6134
rfoot -6.94141 -6.68884
rtoes -4.23684
lfemur -28.0482 3.04471 -10.5581
ltibia 25.8218
lfoot -10.4176 -5.3786
ltoes -15.215
275
root -8.88829 17.9952 5.5248 -65.2691 86.5838 -80.2576
lowerback 5.10903 1.23673 0.0547545
upperback 5.76583 1.79472 4.61912
thorax 2.94921 0.90134 4.71717
lowerneck -11.4777 -0.818141 2.2157
upperneck 44.12 3.3024 -4.87118
head 18.8213 1.85045 -1.87972
rclavicle -1.35174e-014 -5.48646e-014
rhumerus -19.6291 44.9191 -99.4026
rradius 55.9922
rwrist -63.1953
rhand -39.0723 -18.3703
rfingers 7.12502
rthumb -12.0733 -48.002
lclavicle -1.35174e-014 -5.48646e-014
lhumerus -16.6877 -47.4133 105.921
lradius 53.5942
lwrist 63.8776
lhand -12.388 66.3551
lfingers 7.12502
lthumb -166.317 84.1147
rfemur -27.6722 -1.35489 14.329
rtibia 25.5332
rfoot -6.94177 -6.82596
rtoes -3.7361
lfemur -28.0712 2.99377 -10.5304
ltibia 25.8018
lfoot -10.4145 -5.4454
ltoes -15.2478
276
root -8.8875 17.9953 5.52244 -66.3437 86.5665 -81.2925
lowerback 5.11228 1.25845 0.084033
upperback 5.8064 1.82561 4.64106
thorax 2.98757 0.917754 4.72391
lowerneck -11.5533 -0.796529 2.25924
upperneck 44.1561 3.3561 -4.92433
head 18.8726 1.87325 -1.90427
rclavicle 1.82882e-014 2.94201e-014
rhumerus -19.6039 44.9823 -99.3366
rradius 56.0889
rwrist -63.2244
rhand -39.1385 -18.3942
rfingers 7.12502
rthumb -12.1372 -48.0221
lclavicle 1.82882e-014 2.94201e-014
lhumerus -16.5878 -47.2915 105.896
lradius 53.4712
lwrist 63.661
lhand -12.5211 66.2391
lfingers 7.12502
lthumb -166.445 84.2221
rfemur -27.571 -1.25177 14.3161
rtibia 25.4683
rfoot -6.96455 -6.95331
rtoes -3.18182
lfemur -28.0573 3.05462 -10.5268
ltibia 25.8292
lfoot -10.4193 -5.54051
ltoes -15.2639
277
root -8.88608 17.995 5.52105 -67.3828 86.5479 -82.2998
lowerback 5.11301 1.27606 0.0793622
upperback 5.82422 1.85002 4.68665
thorax 3.00256 0.929524 4.77437
lowerneck -11.5146 -0.756348 2.29705
upperneck 44.1432 3.45483 -5.01221
head 18.8645 1.91045 -1.93477
rclavicle 1.35174e-014 4.6118e-014
rhumerus -19.6634 45.1899 -99.293
rradius 56.2288
rwrist -63.4941
rhand -39.29 -18.3365
rfingers 7.12502
rthumb -12.2833 -47.9557
lclavicle 1.35174e-014 4.6118e-014
lhumerus -16.5587 -47.2301 105.884
lradius 53.4074
lwrist 63.5227
lhand -12.276 65.7022
lfingers 7.12502
lthumb -166.209 84.775
rfemur -27.4894 -1.28771 14.3554
rtibia 25.4028
rfoot -6.92736 -7.01028
rtoes -3.61502
lfemur -28.0587 3.06971 -10.5038
ltibia 25.8729
lfoot -10.4297 -5.63825
ltoes -14.7075
278
root -8.88613 17.994 5.51893 -69.1505 86.5172 -84.0594
lowerback 5.11184 1.29603 0.159965
upperback 5.82271 1.87964 4.69688
thorax 3.00116 0.947552 4.73854
lowerneck -11.4129 -0.714619 2.3992
upperneck 44.0772 3.49754 -5.03786
head 18.7985 1.94333 -1.95601
rclavicle 1.19271e-015 1.43125e-014
rhumerus -19.7303 45.2167 -99.3438
rradius 56.2643
rwrist -63.6758
rhand -39.1414 -18.0976
rfingers 7.12502
rthumb -12.14 -47.7254
lclavicle 1.19271e-015 1.43125e-014
lhumerus -16.6461 -47.4031 105.841
lradius 53.5106
lwrist 63.583
lhand -12.1322 65.6472
lfingers 7.12502
lthumb -166.07 84.8394
rfemur -27.4364 -1.36762 14.4325
rtibia 25.3441
rfoot -6.81716 -7.08977
rtoes -4.42739
lfemur -28.1033 3.0084 -10.4473
ltibia 25.9257
lfoot -10.4762 -5.71438
ltoes -14.5823
279
root -8.88707 17.9925 5.51494 -71.3072 86.5276 -86.2644
lowerback 5.06811 1.31691 0.296172
upperback 5.79808 1.90945 4.63545
thorax 3.00288 0.967945 4.59644
lowerneck -11.3547 -0.673117 2.57145
upperneck 44.0335 3.4908 -5.00125
head 18.7542 1.97519 -1.9699
rclavicle -2.82274e-014 -3.18055e-014
rhumerus -19.5766 44.8255 -99.5128
rradius 55.9442
rwrist -63.4449
rhand -38.7976 -17.8358
rfingers 7.12502
rthumb -11.8085 -47.4829
lclavicle -2.82274e-014 -3.18055e-014
lhumerus -16.7706 -47.6116 105.809
lradius 53.6057
lwrist 63.63
lhand -12.1573 65.8364
lfingers 7.12502
lthumb -166.095 84.6485
rfemur -27.449 -1.42711 14.4457
rtibia 25.3072
rfoot -6.73976 -7.19887
rtoes -4.73324
lfemur -28.2219 2.94461 -10.4446
ltibia 25.9742
lfoot -10.4997 -5.79185
ltoes -15.1411
280
root -8.88698 17.9929 5.51195 -72.4304 86.5548 -87.4408
lowerback 5.01272 1.37188 0.382522
upperback 5.77324 1.98233 4.56773
thorax 3.00664 1.00786 4.47528
lowerneck -11.3631 -0.656168 2.69189
upperneck 44.0383 3.46379 -4.95015
head 18.7574 1.99285 -1.97186
rclavicle 3.89618e-014 5.96354e-014
rhumerus -19.5004 44.5586 -99.6152
rradius 55.8178
rwrist -63.3286
rhand -38.7729 -17.6843
rfingers 7.12502
rthumb -11.7847 -47.3328
lclavicle 3.89618e-014 5.96354e-014
lhumerus -16.8117 -47.7421 105.803
lradius 53.5622
lwrist 63.4554
lhand -11.9077 65.691
lfingers 7.12502
lthumb -165.854 84.8106
rfemur -27.4872 -1.45191 14.4095
rtibia 25.3052
rfoot -6.75415 -7.24714
rtoes -4.57297
lfemur -28.3191 2.93057 -10.4797
ltibia 26.0034
lfoot -10.4999 -5.83795
ltoes -15.5352
